HIERARCHY
ROOT Hips
{
	OFFSET 11.418242 -1.267926 3.365934
	CHANNELS 6 Xposition Yposition Zposition Zrotation Yrotation Xrotation
	JOINT LHipJoint
	{
		OFFSET 1.854021 6.346283 0.098125
		CHANNELS 3 Zrotation Yrotation Xrotation
		JOINT LeftUpLeg
		{
			OFFSET 3.167964 4.834351 5.007348
			CHANNELS 3 Zrotation Yrotation Xrotation
			JOINT LeftLeg
			{
				OFFSET 5.246431 13.335937 10.854654
				CHANNELS 3 Zrotation Yrotation Xrotation
				JOINT LeftFoot
				{
					OFFSET 8.064254 2.163216 2.503900
					CHANNELS 3 Zrotation Yrotation Xrotation
					JOINT LeftToeBase
					{
						OFFSET 0.509926 -4.459653 -2.190274
						CHANNELS 3 Zrotation Yrotation Xrotation
						End Site
						{
							OFFSET 0.000000 0.000000 0.000000
						}
					}
				}
			}
		}
	}
	JOINT RHipJoint
	{
		OFFSET -11.463161 -1.257820 -6.853973
		CHANNELS 3 Zrotation Yrotation Xrotation
		JOINT RightUpLeg
		{
			OFFSET -3.056963 0.942718 1.157914
			CHANNELS 3 Zrotation Yrotation Xrotation
			JOINT RightLeg
			{
				OFFSET -9.322917 -5.807788 -3.537685
				CHANNELS 3 Zrotation Yrotation Xrotation
				JOINT RightFoot
				{
					OFFSET -12.445263 -15.386311 -2.476572
					CHANNELS 3 Zrotation Yrotation Xrotation
					JOINT RightToeBase
					{
						OFFSET -5.266094 14.892427 -4.467661
						CHANNELS 3 Zrotation Yrotation Xrotation
						End Site
						{
							OFFSET 0.000000 0.000000 0.000000
						}
					}
				}
			}
		}
	}
	JOINT LowerBack
	{
		OFFSET 7.019490 10.842908 1.873415
		CHANNELS 3 Zrotation Yrotation Xrotation
		JOINT Spine
		{
			OFFSET -8.573769 10.622530 38.363789
			CHANNELS 3 Zrotation Yrotation Xrotation
			JOINT Spine1
			{
				OFFSET 41.422096 50.098141 -12.701950
				CHANNELS 3 Zrotation Yrotation Xrotation
				JOINT Neck
				{
					OFFSET 4.594673 60.071445 68.921188
					CHANNELS 3 Zrotation Yrotation Xrotation
					JOINT Neck1
					{
						OFFSET 35.635132 -7.664286 5.426823
						CHANNELS 3 Zrotation Yrotation Xrotation
						JOINT Head
						{
							OFFSET 7.244549 15.481459 17.520088
							CHANNELS 3 Zrotation Yrotation Xrotation
							End Site
							{
								OFFSET 0.000000 0.000000 0.000000
							}
						}
					}
				}
				JOINT LeftShoulder
				{
					OFFSET 5.264051 9.774124 16.013004
					CHANNELS 3 Zrotation Yrotation Xrotation
					JOINT LeftArm
					{
						OFFSET 4.285976 10.801670 25.253536
						CHANNELS 3 Zrotation Yrotation Xrotation
						JOINT LeftForeArm
						{
							OFFSET 17.761814 58.947784 29.587543
							CHANNELS 3 Zrotation Yrotation Xrotation
							JOINT LeftHand
							{
								OFFSET 78.595161 21.958227 -20.020548
								CHANNELS 3 Zrotation Yrotation Xrotation
								JOINT LeftFingerBase
								{
									OFFSET 44.523121 -11.471397 20.012644
									CHANNELS 3 Zrotation Yrotation Xrotation
									JOINT LeftHandIndex1
									{
										OFFSET 14.223366 13.400174 19.607119
										CHANNELS 3 Zrotation Yrotation Xrotation
										End Site
										{
											OFFSET 0.000000 0.000000 0.000000
										}
									}
								}
								JOINT LThumb
								{
									OFFSET 0.426510 -6.607518 8.095010
									CHANNELS 3 Zrotation Yrotation Xrotation
									End Site
									{
										OFFSET 0.000000 0.000000 0.000000
									}
								}
							}
						}
					}
				}
				JOINT RightShoulder
				{
					OFFSET 0.800281 13.162685 13.737450
					CHANNELS 3 Zrotation Yrotation Xrotation
					JOINT RightArm
					{
						OFFSET 5.628707 -0.526012 5.951218
						CHANNELS 3 Zrotation Yrotation Xrotation
						JOINT RightForeArm
						{
							OFFSET 9.481115 16.576937 7.271237
							CHANNELS 3 Zrotation Yrotation Xrotation
							JOINT RightHand
							{
								OFFSET 5.172843 5.505712 4.250364
								CHANNELS 3 Zrotation Yrotation Xrotation
								JOINT RightFingerBase
								{
									OFFSET 64.847321 31.415127 103.103653
									CHANNELS 3 Zrotation Yrotation Xrotation
									JOINT RightHandIndex1
									{
										OFFSET 25.800783 98.644348 43.078087
										CHANNELS 3 Zrotation Yrotation Xrotation
										End Site
										{
											OFFSET 0.000000 0.000000 0.000000
										}
									}
								}
								JOINT RThumb
								{
									OFFSET 44.295513 -75.711609 -17.545515
									CHANNELS 3 Zrotation Yrotation Xrotation
									End Site
									{
										OFFSET -305.443604 -800.309998 615.992859
									}
								}
							}
						}
					}
				}
			}
		}
	}
}
MOTION
Frames: 7
Frame Time: 0.008333
-3.814846 15.888182 3.582339 -8.603977 -7.595170 -5.514402 -7.906225 -4.447931 2.807793 -43.809376 -45.031136 -91.602554 -16.437336 1.030788 9.557707 -2.521782 -48.024620 17.217728 -2.508972 -1.058652 -54.127102 -7.938367 -8.143839 -13.497984 -45.073181 -54.732479 -27.187824 2.311309 -4.818812 -24.422363 -28.270842 -68.340996 -85.097389 -5.285923 -19.680584 -65.394196 -19.311308 -23.618484 -69.322441 5.216483 -28.934044 38.990570 29.864159 14.368368 -46.483341 -36.887009 25.276628 -35.327873 4.630176 -12.034508 47.976807 -7.113916 -2.561374 23.253801 10.394995 -5.163774 0.892293 -146.877258 -26.796913 -70.930695 205.075394 -69.814026 43.662563 -5.153023 -23.620853 -31.529512 -158.213638 -167.876480 -18.897884 -7.125000 0.000000 0.000000 -91.719749 35.860641 -119.340965 -13.745990 -6.718627 -2.387109 47.590569 -6.064147 -94.826736 -14.260547 6.561634 -18.349567 0.494777 -11.321129 293.145538 -879.854797 -1775.844727 -506.078217 7.125000 0.000000 0.000000 1636.248047 -22069.923828 41567.265625
-9.101113 16.914110 -3.518836 -0.488975 6.564005 23.535435 7.494769 -3.470424 3.128514 5.920557 34.063980 -2.445350 -16.655041 -5.960405 21.579662 -0.179518 -81.284225 -52.729172 -5.313522 -11.754773 -41.631111 -7.659684 -9.934851 -4.273294 58.339439 -33.940289 -40.837791 -18.596615 -26.351524 26.153913 -1.080173 -28.045092 66.552177 3.177240 -0.806849 -51.039341 14.658091 13.879475 -0.560581 11.592915 -140.205078 -29.957405 -21.333309 38.597725 -18.400534 -50.015442 38.235210 -20.706377 29.549892 -10.121046 76.533386 7.206481 5.556685 11.004072 7.672572 -10.147629 4.237100 -36.262936 8.126086 51.652824 -65.991150 -99.529343 207.858887 -12.261284 -2.407202 246.452606 27.392944 6.730006 3.815463 -7.125000 0.000000 0.000000 87.470688 103.728851 -141.292465 -3.171159 25.996286 2.391692 19.325550 -62.592266 -154.546295 -7.918158 31.793392 -13.210845 -11.526708 1.491651 -114.814232 296.093719 -678.983032 1155.835327 7.125000 0.000000 0.000000 -2088.671631 5585.407715 -16651.189453
-1.119949 20.062489 56.978172 7.872715 8.494104 17.118738 0.299081 -5.079007 -7.149473 3.604523 2.571470 7.159885 0.209078 12.687843 29.469616 16.742805 25.455595 23.031437 3.667756 0.293250 48.751839 22.555969 8.561381 10.661974 74.602654 -2.439447 40.036274 5.496999 -14.890151 16.684401 1.349480 -18.616106 -2.809316 -1.774791 13.498418 7.459434 45.122047 11.859308 42.307526 28.662996 44.093914 30.436518 -30.942318 18.161022 -19.626114 -52.306370 32.171413 32.475151 25.660999 -1.462308 18.878119 6.275328 2.794823 -6.330995 11.557645 -3.820890 -7.404450 -105.558548 -178.354630 -19.895048 247.210052 286.233887 468.740845 14.828118 14.397492 136.506516 138.191879 84.556412 48.511665 -7.125000 0.000000 0.000000 95.266685 57.187588 40.815231 0.900532 18.801285 1.317798 99.789375 46.264488 131.715469 -33.866650 23.713461 0.372858 4.180032 9.014458 401.026184 220.023621 552.022827 751.679504 7.125000 0.000000 0.000000 11510.995117 10687.174805 -25019.062500
-1.623753 18.859713 -13.134118 -13.746489 -26.816841 1.314456 0.816951 1.029703 -4.436929 9.208347 -10.064840 -9.544280 -3.891085 7.813087 -33.442177 7.832822 -17.111965 -28.833559 1.403367 -11.279170 5.878386 -3.098165 -2.981802 2.727957 44.785942 -0.196633 -2.070799 16.901291 15.822680 62.916019 9.300280 -1.483323 19.182257 5.777981 18.946669 -67.251587 26.453758 -14.329741 39.238514 4.402374 -0.161425 -78.417351 -73.731560 3.499006 -10.906607 -49.498600 14.434351 -27.980833 -4.733313 -21.421680 -50.077427 6.443098 7.563092 4.063352 4.933064 -3.447520 -4.334924 -60.330856 143.581970 -113.619911 -247.867096 -287.319305 -326.800049 -7.166982 -32.553902 1.607535 118.430847 -50.992020 8.288252 -7.125000 0.000000 0.000000 2.905958 2.282536 106.111626 -0.663909 16.090693 -1.359551 80.081314 50.238834 241.448456 7.671657 108.590958 57.858925 21.207508 -5.256963 238.257416 -829.917114 747.767273 -312.841919 7.125000 0.000000 0.000000 5794.254395 -13907.755859 -11606.710938
4.435540 19.061998 25.040884 -6.518910 -13.775977 3.955548 -0.113605 -2.302655 -5.713384 -0.182171 4.552110 -20.128838 -18.733850 -8.219243 -24.443048 24.896278 77.395172 37.438019 3.062372 9.533699 43.446075 -1.068358 -2.012925 -1.284997 21.103848 6.192689 -43.639648 5.281282 4.800047 8.048689 13.581614 -13.691077 -4.269722 3.128652 2.827560 -6.759192 5.488493 -2.283206 43.804150 -2.729883 -173.296844 -116.469933 4.837377 51.216248 -21.601271 -115.547058 -14.872290 -70.123489 13.658723 15.533151 41.432827 7.749089 -1.640232 -10.635996 -10.723845 -1.595381 5.326723 -43.651615 169.445251 -301.907379 -474.212372 -238.738617 -277.727905 8.101200 23.129002 395.393585 150.860916 -69.088699 -35.363129 -7.125000 0.000000 0.000000 -53.050816 -46.586826 -221.794067 -40.103481 -5.569050 1.394667 27.337425 -95.449554 -167.099045 -124.223358 -34.297405 -74.224739 18.516401 -14.404898 -480.001801 -2063.808105 -18.681965 -729.306946 7.125000 0.000000 0.000000 -7495.503906 3716.166260 -44582.585938
-4.231010 15.767862 -48.577972 -7.012723 -15.404047 -11.516018 -12.262505 -5.296519 -0.976585 -9.993309 -20.220512 -54.598282 -4.543187 13.613974 -17.890463 12.295451 66.675385 26.191778 0.735895 0.030333 -15.610587 -15.289553 0.226071 6.368652 34.154892 4.787713 -56.172310 -0.507996 -15.225915 -127.025513 -9.547668 -35.541042 8.932743 0.050551 15.200070 -8.231470 -28.412544 -21.525921 -39.847507 -2.434412 -148.716354 -15.694347 13.456330 -5.401355 -112.343597 -79.275604 19.262165 -13.897469 35.844456 -25.522251 13.553282 4.826136 9.473567 10.807457 25.037151 18.309584 3.090506 -152.333008 -34.308922 -308.056519 -281.100769 7.521835 -98.616066 2.203449 -1.618649 -202.743896 -106.533234 -87.269981 6.532174 -7.125000 0.000000 0.000000 -47.926228 53.131012 107.399765 -0.278392 -8.341239 1.563001 89.401108 86.654099 188.974213 -56.766945 41.786133 -77.897041 2.933688 -16.675833 -193.680557 -259.248566 159.216400 -1823.206177 7.125000 0.000000 0.000000 -7045.143555 581.451111 19163.585938
6.104640 18.657393 24.803131 -4.311178 -18.344481 -11.498837 -0.134850 -6.383347 0.564449 -7.184689 -3.843110 -50.183231 -6.409821 8.289141 -11.529196 -0.425559 3.707953 0.028092 -1.311116 -10.547379 -66.060692 -36.900570 -13.524821 -8.161626 -40.862823 -46.588696 -30.352562 17.561073 9.072516 -58.465641 -0.128584 -7.948121 -13.475555 -6.787476 -4.676586 -124.052277 -22.267063 -30.660685 -91.129036 -6.528016 -106.971550 -45.072273 -75.400101 -20.887491 -100.501991 -102.546913 -50.538780 -76.422012 2.250256 7.684536 46.371647 -13.839389 -10.226393 -9.765596 10.106354 -1.617914 -0.750797 -77.084763 61.622692 -144.322968 -365.726807 -568.401611 -359.847992 -10.684917 1.925404 354.314209 8.854241 -136.712128 -85.786484 -7.125000 0.000000 0.000000 -102.328850 -78.358765 -67.938362 -25.681185 -6.755292 -5.682428 27.154007 23.551090 164.202454 -61.986267 -2.672842 -41.120071 -7.026857 -31.158443 -633.159119 -1361.297485 561.797485 -798.610718 7.125000 0.000000 0.000000 -4550.487305 -1615.258911 18789.332031
